<?xml version="1.0" encoding="UTF-8"?>
<svg width="40px" height="65px" viewBox="0 0 40 65" version="1.1" xmlns="http://www.w3.org/2000/svg" xmlns:xlink="http://www.w3.org/1999/xlink">
    <!-- Generator: Sketch 48.2 (47327) - http://www.bohemiancoding.com/sketch -->
    <title>Group</title>
    <desc>Created with Sketch.</desc>
    <defs></defs>
    <g id="Etherium" stroke="none" stroke-width="1" fill="none" fill-rule="evenodd">
        <g id="Group" fill-rule="nonzero">
            <path d="M20.1,0.8 C20.1,0.8 20.1,0.8 20.1,0.8 C20.1,1 20.1,1.2 20.1,1.4 C20.1,8.8 20.1,16.3 20.1,23.7 C20.1,23.8 20.1,24 20.1,24.1 C20.1,24.2 20,24.3 19.9,24.3 C19.2,24.6 18.6,24.9 17.9,25.2 C17,25.6 16,26 15.1,26.5 C14,27 12.9,27.5 11.8,28 C10.9,28.4 10,28.8 9.1,29.2 C8,29.7 6.9,30.2 5.8,30.7 C4.9,31.1 4,31.5 3,32 C2.3,32.3 1.5,32.7 0.8,33 C0.7,33 0.7,33.1 0.6,33 C0.6,33 0.6,33 0.5,33 C0.8,32.5 1.1,32.1 1.4,31.6 C3,28.9 4.7,26.2 6.3,23.5 C8,20.6 9.8,17.7 11.5,14.8 C13.1,12.1 14.7,9.4 16.3,6.8 C17.5,4.8 18.7,2.9 19.8,0.9 C20,0.9 20,0.8 20.1,0.8 C20,0.8 20.1,0.8 20.1,0.8 C20.1,0.8 20.1,0.8 20.1,0.8 Z" id="Shape" fill="#8A92B2"></path>
            <path d="M39.5,33 C39.5,33 39.5,33 39.5,33 C38,34 36.4,34.9 34.9,35.8 C30,38.7 25.2,41.5 20.3,44.4 C20.2,44.4 20.2,44.5 20.1,44.5 C20,44.5 20,44.4 20,44.4 C20,44.3 20,44.2 20,44.1 C20,37.6 20,31.1 20,24.6 C20,24.5 20,24.4 20,24.3 C20,24.2 20.1,24.2 20.2,24.2 C20.6,24.4 21,24.6 21.5,24.8 C22.7,25.4 24,25.9 25.2,26.5 C26.3,27 27.3,27.5 28.4,27.9 C29.5,28.4 30.5,28.9 31.6,29.4 C32.5,29.8 33.5,30.2 34.4,30.7 C35.3,31.1 36.3,31.5 37.2,32 C37.9,32.3 38.6,32.7 39.4,33 C39.4,32.9 39.4,33 39.5,33 Z" id="Shape" fill="#454A75"></path>
            <path d="M20.1,64.1 C20.1,64.1 20.1,64.1 20.1,64.1 C20.1,64.1 20,64.1 20.1,64.1 C20,64.1 20,64.1 19.9,64 C17.9,61.2 16,58.5 14,55.7 C12,52.9 10,50.1 8,47.3 C6.1,44.6 4.1,41.9 2.2,39.1 C1.7,38.4 1.2,37.7 0.7,37 C0.7,36.9 0.6,36.9 0.6,36.8 C0.7,36.8 0.7,36.9 0.8,36.9 C3.5,38.5 6.3,40.1 9,41.7 C12.1,43.6 15.3,45.4 18.4,47.3 C18.9,47.6 19.5,47.9 20,48.2 C20.1,48.2 20.1,48.3 20.1,48.4 C20.1,48.5 20.1,48.6 20.1,48.7 C20.1,53.7 20.1,58.6 20.1,63.6 C20.1,63.7 20.1,63.9 20.1,64.1 Z" id="Shape" fill="#8A92B2"></path>
            <path d="M0.6,33 C0.6,33 0.7,33 0.6,33 C0.7,33 0.7,33 0.6,33 C0.6,33.1 0.6,33.1 0.6,33 C0.6,33 0.6,33 0.6,33 C0.6,33 0.6,33 0.6,33 Z" id="Shape" fill="#808080"></path>
            <path d="M0.7,33.1 C0.7,33 0.7,33 0.7,33.1 C1.7,32.6 2.7,32.2 3.7,31.7 C5,31.1 6.3,30.5 7.6,29.9 C8.6,29.4 9.6,29 10.6,28.5 C12,27.8 13.5,27.2 14.9,26.5 C15.9,26.1 16.9,25.6 17.9,25.2 C18.6,24.9 19.3,24.6 20,24.2 C20.1,24.2 20.1,24.1 20.2,24.1 C20.2,24.1 20.2,24.1 20.2,24.2 C20.2,24.3 20.2,24.3 20.2,24.4 C20.2,31 20.2,37.6 20.2,44.2 C20.2,44.3 20.2,44.4 20.2,44.5 C20.1,44.6 20.1,44.5 20,44.5 C19.7,44.3 19.4,44.2 19.2,44 C13.1,40.4 7,36.8 0.9,33.2 C0.8,33.1 0.7,33.1 0.7,33.1 Z" id="Shape" fill="#62688F"></path>
            <path d="M39.4,36.8 C39.4,36.8 39.4,36.8 39.4,36.8 C39.4,36.9 39.4,36.9 39.3,37 C33.5,45.2 27.7,53.3 21.9,61.5 C21.3,62.4 20.7,63.2 20.1,64.1 C20.1,64.1 20.1,64.1 20.1,64 C20.1,63.9 20.1,63.9 20.1,63.8 C20.1,58.7 20.1,53.6 20.1,48.5 C20.1,48.4 20.1,48.3 20.1,48.2 C21.4,47.4 22.7,46.6 24,45.9 C29.1,42.9 34.2,39.9 39.3,36.9 C39.3,36.8 39.4,36.8 39.4,36.8 Z" id="Shape" fill="#62688F"></path>
            <path d="M20.1,24.2 C20.1,24.2 20.1,24.2 20.1,24.2 C20.1,24.1 20.1,24 20.1,24 C20.1,16.4 20.1,8.7 20.1,1.1 C20.1,1 20.1,0.9 20.1,0.9 C26.5,11.5 32.9,22.1 39.3,32.7 C39.4,32.8 39.5,32.9 39.5,33 C39.1,32.8 38.7,32.6 38.2,32.4 C37.7,32.2 37.2,31.9 36.7,31.7 C36.4,31.6 36.1,31.4 35.7,31.3 C35.2,31.1 34.6,30.8 34.1,30.6 C33.8,30.5 33.5,30.3 33.2,30.2 C32.5,29.9 31.8,29.6 31.1,29.3 C30.7,29.1 30.4,29 30,28.8 C29.5,28.6 29,28.3 28.5,28.1 C28.2,28 27.9,27.8 27.6,27.7 C26.9,27.4 26.2,27.1 25.5,26.8 C25.1,26.6 24.8,26.5 24.4,26.3 C23.9,26.1 23.4,25.8 22.9,25.6 C22.6,25.4 22.2,25.3 21.9,25.1 C21.3,24.8 20.7,24.5 20.1,24.2 C20.1,24.2 20.1,24.2 20.1,24.2 Z" id="Shape" fill="#62688F"></path>
        </g>
    </g>
</svg>