<?xml version="1.0" encoding="utf-8"?>
<!-- Generator: Adobe Illustrator 22.0.1, SVG Export Plug-In . SVG Version: 6.00 Build 0)  -->
<svg version="1.1" id="图层_1" xmlns="http://www.w3.org/2000/svg" xmlns:xlink="http://www.w3.org/1999/xlink" x="0px" y="0px"
	 viewBox="0 0 355.1 278.8" style="enable-background:new 0 0 355.1 278.8;" xml:space="preserve">
<style type="text/css">
	.st0{fill:#4A8AC9;}
	.st1{fill:#FFFFFF;}
</style>
<g>
	<path class="st0" d="M315.9,140.3"/>
	<path class="st0" d="M315.9,137.7"/>
	<path class="st0" d="M315.9,139.6"/>
	<path class="st0" d="M315.9,137.1"/>
	<path class="st0" d="M315.9,139.6"/>
	<path class="st0" d="M315.9,137.1"/>
	<path class="st0" d="M315.9,139.6"/>
	<path class="st0" d="M315.9,137.1"/>
	<path class="st0" d="M315.9,140.3"/>
	<path class="st0" d="M315.9,137.7"/>
	<path class="st0" d="M315.9,139.6"/>
	<path class="st0" d="M315.9,137.1"/>
	<path class="st0" d="M315.9,139.6"/>
	<path class="st0" d="M315.9,137.1"/>
	<path class="st0" d="M315.9,139.6"/>
	<path class="st0" d="M315.9,137.1"/>
	<path class="st0" d="M315.9,140.3"/>
	<path class="st0" d="M315.9,137.7"/>
	<path class="st0" d="M315.9,139.6"/>
	<path class="st0" d="M315.9,137.1"/>
	<path class="st0" d="M315.9,139.6"/>
	<path class="st0" d="M315.9,137.1"/>
	<path class="st0" d="M315.9,139.6"/>
	<path class="st0" d="M315.9,137.1"/>
	<path class="st0" d="M315.9,140.3"/>
	<path class="st0" d="M315.9,137.7"/>
	<path class="st0" d="M315.9,139.6"/>
	<path class="st0" d="M315.9,137.1"/>
	<path class="st0" d="M315.9,139.6"/>
	<path class="st0" d="M315.9,137.1"/>
	<path class="st0" d="M315.9,139.6"/>
	<path class="st0" d="M315.9,137.1"/>
	<path class="st0" d="M315.9,140.3"/>
	<path class="st0" d="M315.9,137.7"/>
	<path class="st0" d="M315.9,139.6"/>
	<path class="st0" d="M315.9,137.1"/>
	<path class="st0" d="M315.9,139.6"/>
	<path class="st0" d="M315.9,137.1"/>
	<path class="st0" d="M315.9,139.6"/>
	<path class="st0" d="M315.9,137.1"/>
	<path class="st0" d="M315.9,140.3"/>
	<path class="st0" d="M315.9,137.7"/>
	<path class="st0" d="M315.9,139.6"/>
	<path class="st0" d="M315.9,137.1"/>
	<path class="st0" d="M315.9,139.6"/>
	<path class="st0" d="M315.9,137.1"/>
	<path class="st0" d="M315.9,139.6"/>
	<path class="st0" d="M315.9,137.1"/>
	<path class="st1" d="M290.9,75.3l-112.2,0l-56.1,97.2l56.1,97.2l112.2,0l56.1-97.2L290.9,75.3z M272.6,238l-75.6,0l-37.8-65.4
		l37.8-65.4l75.6,0l37.8,65.4L272.6,238z"/>
	<g>
		<g>
			<polygon class="st1" points="197,106.9 159.2,172.3 177.4,203.9 233.4,106.9 			"/>
			<polygon class="st1" points="122.5,172.1 122.6,172.1 83.5,172.2 45.7,105.7 83.4,39.2 159,39.2 178.6,73.9 178.6,74.6 
				215.2,74.6 177.3,9.3 65.1,9.5 9,106.5 65.1,203.4 140.8,203.4 			"/>
		</g>
		<polygon class="st1" points="196.3,106.8 158.6,172.2 83.1,172.2 45.4,106.8 8.7,106.8 64.8,204 177,203.9 233,106.8 		"/>
	</g>
	<polyline class="st1" points="234.1,107.2 196.7,107.1 182,132.1 201.1,114.1 234.1,107.2 	"/>
	<polygon class="st1" points="141.1,203.9 145.4,211.4 176.9,204 	"/>
</g>
</svg>
