<?xml version="1.0" encoding="utf-8"?>
<!-- Generator: Adobe Illustrator 22.0.1, SVG Export Plug-In . SVG Version: 6.00 Build 0)  -->
<svg version="1.1" id="图层_1" xmlns="http://www.w3.org/2000/svg" xmlns:xlink="http://www.w3.org/1999/xlink" x="0px" y="0px"
	 viewBox="0 0 355.1 278.8" style="enable-background:new 0 0 355.1 278.8;" xml:space="preserve">
<style type="text/css">
	.st0{fill:#0496FB;}
</style>
<path class="st0" d="M315.9,141.3 M315.9,138.7 M315.9,140.6 M315.9,138.1 M315.9,140.6 M315.9,138.1 M315.9,140.6 M315.9,138.1
	 M315.9,141.3 M315.9,138.7 M315.9,140.6 M315.9,138.1 M315.9,140.6 M315.9,138.1 M315.9,140.6 M315.9,138.1 M315.9,141.3
	 M315.9,138.7 M315.9,140.6 M315.9,138.1 M315.9,140.6 M315.9,138.1 M315.9,140.6 M315.9,138.1 M315.9,141.3 M315.9,138.7
	 M315.9,140.6 M315.9,138.1 M315.9,140.6 M315.9,138.1 M315.9,140.6 M315.9,138.1 M315.9,141.3 M315.9,138.7 M315.9,140.6
	 M315.9,138.1 M315.9,140.6 M315.9,138.1 M315.9,140.6 M315.9,138.1 M315.9,141.3 M315.9,138.7 M315.9,140.6 M315.9,138.1
	 M315.9,140.6 M315.9,138.1 M315.9,140.6 M315.9,138.1 M290.9,76.3l-112.2,0l-56.1,97.2l56.1,97.2l112.2,0l56.1-97.2L290.9,76.3z
	 M272.6,239l-75.6,0l-37.8-65.4l37.8-65.4l75.6,0l37.8,65.4L272.6,239z M197,107.9l-37.8,65.5l18.2,31.5l56-97L197,107.9z
	 M122.5,173.1L122.5,173.1l-39.1,0.1l-37.8-66.5l37.8-66.5H159l19.6,34.7l0.1,0.7h36.6l-37.9-65.3L65.1,10.5L9,107.5l56.1,96.9h75.7
	L122.5,173.1z M196.3,107.8l-37.6,65.4l-75.6-0.1l-37.7-65.3H8.7l56,97.2l112.2-0.1l56-97.1H196.3z M234.1,108.2l-37.4-0.1l-14.6,25
	l19-18L234.1,108.2 M141.1,204.9l4.3,7.5l31.5-7.3L141.1,204.9z"/>
</svg>
